<svg width="16" height="11" viewBox="0 0 16 11" fill="none" xmlns="http://www.w3.org/2000/svg">
<path d="M14.1402 4.56241H4.47005L8.67447 1.88928C8.91438 1.73628 9.04916 1.52878 9.04916 1.31241C9.04916 1.09604 8.91438 0.888528 8.67447 0.735532C8.43456 0.582535 8.10917 0.496582 7.76988 0.496582C7.4306 0.496582 7.10521 0.582535 6.8653 0.735532L0.494962 4.79803C0.37897 4.8753 0.288047 4.96642 0.227408 5.06616C0.0999785 5.26397 0.0999785 5.48584 0.227408 5.68366C0.288047 5.78339 0.37897 5.87451 0.494962 5.95178L6.8653 10.0143C6.98374 10.0904 7.12465 10.1509 7.27991 10.1921C7.43516 10.2334 7.60169 10.2546 7.76988 10.2546C7.93808 10.2546 8.1046 10.2334 8.25986 10.1921C8.41512 10.1509 8.55603 10.0904 8.67447 10.0143C8.79389 9.93875 8.88867 9.84889 8.95335 9.74987C9.01804 9.65086 9.05134 9.54467 9.05134 9.43741C9.05134 9.33015 9.01804 9.22395 8.95335 9.12494C8.88867 9.02593 8.79389 8.93606 8.67447 8.86053L4.47005 6.18741H14.1402C14.4781 6.18741 14.8022 6.1018 15.0411 5.94943C15.2801 5.79706 15.4143 5.59039 15.4143 5.37491C15.4143 5.15942 15.2801 4.95276 15.0411 4.80038C14.8022 4.64801 14.4781 4.56241 14.1402 4.56241Z" fill="#262A2E"/>
</svg>
