<svg width="144" height="45" viewBox="0 0 144 45" fill="none" xmlns="http://www.w3.org/2000/svg">
<path d="M32.3135 0.381189C24.5111 2.07793 21.011 9.46696 25.6049 14.5754C31.0981 20.6873 41.5255 20.4684 46.3625 14.1193C51.953 6.76677 43.0568 -1.93587 32.3135 0.381189ZM32.1676 2.24213C32.0947 2.49755 32.3135 2.66175 32.6537 2.60702C32.994 2.55229 33.2614 2.77122 33.2614 3.08138C33.2614 3.44627 33.6017 3.61047 34.2093 3.53749C34.7441 3.48276 35.1573 3.59223 35.1573 3.79292C35.1573 3.99361 34.6226 4.10307 33.9663 4.04834C32.7024 3.92063 32.435 4.46796 33.2614 5.43492C33.6746 5.89104 33.7961 5.85455 34.0392 5.1795C34.4038 4.21254 35.376 4.43147 36.1052 5.65386C36.5184 6.3289 36.5184 6.51135 36.1295 6.3289C35.8379 6.18295 35.4004 6.29242 35.1573 6.56608C34.5253 7.33235 34.6226 7.55129 35.692 7.80671C36.3726 7.97091 36.6643 8.35405 36.6643 9.10207C36.6643 10.3245 36.6886 10.3062 34.9385 9.81361C33.5531 9.41223 31.803 10.3792 31.803 11.5468C31.803 11.8935 31.244 11.6928 30.2474 10.963C27.5494 8.97436 28.3515 10.963 31.487 14.0099L32.994 15.4694L30.8308 14.0463C27.5737 11.93 27.5737 11.93 28.5703 12.2219C29.3967 12.4591 29.421 12.3861 28.8863 11.6381C27.7196 9.99605 27.7439 5.92753 28.9592 4.72339C29.5425 4.12132 30.0773 3.26382 30.1502 2.80771C30.1988 2.3516 30.2717 1.93197 30.296 1.87724C30.4662 1.53059 32.2648 1.87724 32.1676 2.24213ZM37.6122 2.68C37.9282 2.97191 38.9977 3.26382 39.9943 3.35505L41.7686 3.48276L39.7026 3.55574C37.831 3.61047 37.6365 3.70169 37.6365 4.55919C37.6365 5.14301 37.4178 5.43492 37.0289 5.3437C36.6886 5.25248 36.4698 4.86934 36.4941 4.50445C36.5428 4.12132 36.3969 3.55574 36.1539 3.20909C35.4247 2.1874 36.5914 1.74953 37.6122 2.68ZM43.9562 4.48621C43.6888 4.6869 43.4701 5.23423 43.4701 5.70859C43.4701 6.18295 43.2756 6.49311 43.0568 6.38364C42.8381 6.27417 42.6923 5.69035 42.7409 5.08828C42.7895 4.46796 42.6193 3.97536 42.4006 3.97536C42.1575 3.97536 42.0846 3.81116 42.2547 3.61047C42.4249 3.39154 42.8867 3.42802 43.4701 3.70169C44.0777 3.99361 44.2479 4.26727 43.9562 4.48621ZM45.293 8.08038C45.7792 10.3062 45.6333 10.9083 44.5152 10.9083C43.4944 10.9265 39.8484 14.7214 39.7269 15.9073C39.5567 17.4946 38.6817 17.9142 35.9594 17.7317C33.0183 17.531 29.5425 16.8378 31.1467 16.783C33.0913 16.71 33.8448 16.3452 33.2128 15.7978C32.8968 15.5059 32.7996 15.287 32.9697 15.287C33.1399 15.287 32.9454 14.9038 32.5322 14.4295C30.4662 12.0759 33.8448 10.8718 37.2476 12.7327C40.0186 14.2653 43.4701 12.1672 43.4701 8.95612C43.4701 5.72684 44.6368 5.16126 45.293 8.08038ZM40.6748 9.3575C40.8207 9.70414 41.088 10.2697 41.2582 10.5799C41.4526 10.9448 41.3068 11.2549 40.845 11.3826C40.3345 11.5468 40.213 11.4374 40.4075 11.0177C40.6505 10.5799 40.5047 10.4704 39.9213 10.6529C39.3866 10.7988 39.2164 10.7076 39.4109 10.3427C39.5567 10.0508 39.3137 9.72239 38.8275 9.57643C38.0011 9.33925 38.0011 9.30276 38.8762 9.04734C40.2859 8.62772 40.4075 8.6642 40.6748 9.3575Z" fill="white"/>
<path d="M29.6397 8.99233C29.2508 9.72211 29.4453 9.83158 30.7335 9.57615C32.046 9.32073 32.119 8.86462 30.855 8.62744C30.296 8.49973 29.8099 8.64568 29.6397 8.99233Z" fill="black"/>
<path d="M53.7991 0.928781C53.4588 1.03825 53.1914 1.69505 53.1914 2.38834V3.64722L55.5005 3.53775C57.4936 3.44653 57.8339 3.31882 57.9798 2.58903C58.2471 1.05649 56.1325 0.217245 53.7991 0.928781Z" fill="white"/>
<path d="M62.0884 1.05637C60.2897 1.6037 59.998 2.58891 59.998 8.15349V13.4626H62.7204H65.4184L65.2725 8.70082C65.0781 3.39167 65.151 3.26395 68.3594 3.24571C71.3491 3.24571 71.6651 3.7748 71.6651 8.91976V13.4626H74.0957H76.5264V7.97104C76.5264 0.67323 76.5264 0.67323 68.6511 0.709719C65.6371 0.727964 62.6717 0.87392 62.0884 1.05637Z" fill="white"/>
<path d="M81.0248 0.946542C78.8373 1.27494 78.4727 2.26015 78.4727 8.06191V13.4623H81.1707H83.8687L83.7471 8.68222C83.6256 3.39131 83.6985 3.2636 86.7368 3.2636C89.7994 3.2636 89.8966 3.44604 89.8966 8.60924V13.2798L92.4488 13.3893L95.001 13.4988V7.82473V2.13244L93.421 1.4209C91.8897 0.709363 84.5492 0.435695 81.0248 0.946542Z" fill="white"/>
<path d="M98.1359 1.58507C96.9935 2.44256 96.9449 2.67974 96.9449 7.24087C96.9449 13.6265 96.7261 13.4623 105.209 13.4623C113.692 13.4623 113.473 13.6265 113.473 7.24087C113.473 0.745818 113.4 0.691084 105.209 0.691084C99.6186 0.691084 99.2783 0.727573 98.1359 1.58507ZM107.858 3.8109C108.733 4.48595 108.928 9.04708 108.101 10.1965C107.518 11.0175 103.386 11.2182 102.389 10.4702C101.466 9.77686 101.612 4.54068 102.56 3.8109C103.556 3.08112 106.862 3.08112 107.858 3.8109Z" fill="white"/>
<path d="M115.416 6.32904C115.416 12.9518 115.708 13.4626 119.451 13.4626C122.368 13.4626 122.635 13.262 127.545 6.80339C132.674 0.107651 132.43 0.691476 130.048 0.691476H128.153L124.652 5.4533C120.52 11.0361 120.52 11.0361 120.52 5.30734V0.873921L117.968 0.764454L115.416 0.654987V6.32904Z" fill="white"/>
<path d="M134.035 1.69493C133.354 2.24226 130.972 5.07016 128.76 7.98929L124.701 13.2802L126.451 13.3897C128.639 13.5356 128.785 13.4262 132.455 8.4454C135.688 4.03023 136.32 3.57411 136.32 5.70872C136.32 6.78515 136.563 7.16828 137.413 7.44195C140.16 8.35418 140.063 11.6382 137.292 11.6382C136.587 11.6382 136.32 11.8936 136.32 12.5504C136.32 13.4079 136.49 13.4626 138.75 13.4626H141.181V7.97104C141.181 2.6254 141.157 2.4612 139.99 1.58546C138.288 0.308342 135.688 0.363076 134.035 1.69493Z" fill="white"/>
<path d="M53.0463 4.92421C52.8519 5.07016 52.7061 7.05882 52.7061 9.32114V13.4626H55.4041H58.0778L57.9562 9.17518L57.8104 4.88772L55.5985 4.77825C54.3832 4.72352 53.2408 4.7965 53.0463 4.92421Z" fill="white"/>
<path d="M134.4 8.70045C133.719 9.64917 133.768 10.0323 134.643 10.7074C136.587 12.1669 139.577 10.5796 138.289 8.77343C137.559 7.75174 135.104 7.697 134.4 8.70045Z" fill="#F69400"/>
<path d="M14.7157 14.6479C1.29856 24.4087 -2.73629 30.6301 1.90622 34.2608C4.23963 36.067 6.32997 38.1104 6.91332 39.1138C7.2293 39.6612 7.83696 40.2085 8.25017 40.3362C8.66338 40.4639 9.29534 41.1025 9.65994 41.7593C12.8927 47.561 29.8342 44.0581 46.1437 34.2243C50.7619 31.4511 60.4845 24.4635 60.4845 23.9526C60.4845 22.0917 58.7587 22.7302 52.4877 26.9995C41.9387 34.1696 34.7927 37.8732 26.4799 40.4457C22.3235 41.7228 22.1048 41.8323 23.5145 42.0512C26.0424 42.4343 25.1917 43.0182 22.1048 43.0182C7.81266 43.0182 9.10089 37.9462 26.6258 25.2297C32.6537 20.8511 32.7509 20.7598 31.4141 20.7598C30.928 20.7598 30.296 20.5774 29.98 20.3402C28.546 19.2638 14.5698 30.5389 11.3128 35.4284C9.92731 37.4718 9.44118 37.9462 9.17381 37.4353C8.03141 35.2642 16.3685 26.4339 24.2194 21.4896C27.8897 19.1908 27.7925 19.3368 26.1396 18.4245L24.9 17.7495L20.0387 21.3437C14.4483 25.5217 9.85439 29.9003 7.9828 32.8742C6.67026 34.9358 6.03829 35.2277 6.03829 33.7499C6.0626 31.3417 12.4552 24.6459 19.504 19.6652L23.8791 16.5636L23.0041 15.4872L22.1291 14.4107L16.6359 18.607C11.0454 22.8762 5.57647 28.2036 4.50699 30.4659C3.7778 31.962 3.12153 32.0714 3.12153 30.7031C3.17015 28.2218 8.90644 22.1829 16.8303 16.3264C21.2784 13.0606 21.57 12.7505 21.2784 11.6741C20.8652 10.1233 21.0353 10.0503 14.7157 14.6479Z" fill="#59A8D4"/>
<path d="M47.9672 17.0746C47.238 17.6402 45.5365 18.4794 44.1997 18.9173C41.0155 19.9755 41.5017 19.7383 34.866 23.5149C31.6819 25.3394 27.8415 27.401 26.3102 28.0761C24.7789 28.7693 23.5393 29.4991 23.5393 29.7181C23.5393 29.9188 22.6157 30.8127 21.4733 31.6702L19.4072 33.2393L21.3517 32.6372C28.4978 30.4296 45.099 21.0884 49.4741 16.8374C50.6895 15.6515 49.5471 15.834 47.9672 17.0746Z" fill="white"/>
<path d="M72.6813 17.4531C67.9173 18.9856 66.07 22.744 68.3305 26.2469C72.2195 32.2859 84.4456 30.1513 84.4456 23.4373C84.4456 18.8032 78.2231 15.6469 72.6813 17.4531ZM78.5391 19.8431C80.3621 20.2992 83.0358 21.5946 82.7198 21.85C82.5983 21.9412 81.4316 21.5763 80.1433 21.0473C77.2509 19.8796 74.1154 19.9526 71.7091 21.2297C70.8583 21.6858 70.0076 21.9412 69.8375 21.7953C69.1569 21.2662 73.6779 19.5147 75.8654 19.46C76.4245 19.4417 77.6398 19.6059 78.5391 19.8431ZM79.8274 22.3426C82.2337 23.4373 81.7233 23.8204 79.1468 22.8352C76.3516 21.777 75.9384 21.777 73.2647 22.744C70.6882 23.6927 69.959 23.4008 72.2438 22.3609C74.3584 21.3939 77.737 21.3757 79.8274 22.3426ZM78.8551 23.8934C79.4628 24.1123 79.9489 24.4225 79.9489 24.5867C79.9489 25.0063 79.0982 24.9881 78.7579 24.5684C78.1988 23.8752 75.671 23.7474 74.1883 24.3313C73.3619 24.6414 72.5841 24.7509 72.4382 24.5684C72.0736 24.1123 75.6224 23.0724 76.7891 23.2913C77.3238 23.4008 78.2475 23.6562 78.8551 23.8934ZM77.5426 25.8456C78.4176 26.6118 77.5426 27.6335 76.0113 27.6335C74.8203 27.6335 74.2612 26.7943 74.796 25.7908C75.1362 25.0793 76.7648 25.1158 77.5426 25.8456Z" fill="#59A8D4"/>
<path d="M47.8211 20.1587C38.8764 26.5442 28.2302 32.0906 20.3793 34.4624C17.657 35.2834 16.8306 35.7395 16.1986 36.7064L15.3965 37.8923L16.6847 37.6734C24.4871 36.3051 32.9213 32.7109 42.498 26.6719C47.6024 23.4244 55.3318 17.6774 54.1165 18.024C53.6789 18.1518 52.9984 18.024 52.6338 17.7321C52.0504 17.2943 51.3698 17.6227 47.8211 20.1587Z" fill="white"/>
<path d="M92.8106 18.2973C92.7134 18.5527 91.9842 20.3954 91.2064 22.4023C90.4043 24.4092 89.3105 26.6168 88.7514 27.3284C81.6297 36.3776 103.748 38.1656 124.725 30.211C126.28 29.6272 128.298 29.1528 129.221 29.1528C130.996 29.1528 133.621 27.821 134.107 26.6533C134.253 26.3067 134.982 25.7593 135.711 25.4127C138.652 24.0626 140.961 22.2929 140.378 21.8368C139.941 21.5084 138.968 21.9462 136.173 23.7342C134.18 25.0113 131.676 26.4161 130.607 26.8722L128.638 27.6933L129.027 26.3249C130.072 22.603 130.072 19.3555 129.051 18.5892C126.475 16.6553 121.322 18.2243 120.252 21.2347C119.936 22.0739 119.086 24.2085 118.332 25.9783L116.971 29.1893L119.402 29.0798L121.857 28.9704L123.242 25.3215C123.996 23.3146 124.628 21.3806 124.628 21.034C124.652 20.6874 124.822 20.3954 125.041 20.3954C125.235 20.3954 125.211 21.9827 124.968 23.9166C124.628 26.5438 124.676 27.6203 125.114 28.1494C125.819 29.0069 126.232 28.7697 121.249 30.3387C102.387 36.2864 87.1229 36.0492 88.3868 29.8279C88.873 27.4013 89.3834 27 90.5501 28.0764C91.4251 28.8791 91.9355 28.9886 95.8246 29.0981L100.127 29.2258L100.662 27.7297L101.172 26.2337H97.842C96.019 26.2337 94.512 26.1972 94.512 26.1425C94.512 26.0877 95.2655 24.318 96.2135 22.2199C97.1371 20.1035 97.8906 18.2608 97.9149 18.1149C97.9149 17.6223 93.0293 17.8047 92.8106 18.2973Z" fill="#F69400"/>
<path d="M132.747 18.1149C132.625 18.2609 131.945 20.0306 131.24 22.0375C130.511 24.0444 129.806 25.9966 129.684 26.3615C129.392 27.1277 132.893 25.504 134.424 24.1721C135.202 23.4971 137.292 19.2278 137.292 18.3156C137.292 17.8048 133.16 17.6223 132.747 18.1149Z" fill="#F69400"/>
<path d="M106.91 18.8815C104.698 19.885 104.455 20.2499 102.632 24.884L100.955 29.1897L103.434 29.0802L105.938 28.9708L106.375 27.42L106.813 25.8692H109.608C112.136 25.8692 112.428 25.7962 112.695 24.9935C112.841 24.5009 113.108 23.8441 113.278 23.5339C113.521 23.0413 113.133 22.9501 110.823 22.9501C108.174 22.9501 108.077 22.9136 108.393 22.1291C108.879 20.9979 109.487 20.779 112.136 20.7607C114.931 20.7607 114.931 20.7242 112.987 25.2671C112.185 27.1463 111.528 28.7883 111.528 28.916C111.528 29.0437 112.573 29.1532 113.837 29.1532H116.147L117.751 24.8657C119.622 19.812 119.647 19.5201 118.237 18.7721C116.584 17.9146 108.855 17.9876 106.91 18.8815Z" fill="#F69400"/>
<path d="M140.209 19.8487C139.407 20.5785 140.38 21.4907 141.935 21.4907C143.296 21.4907 143.782 20.9981 143.369 20.0312C143.005 19.1554 141.084 19.046 140.209 19.8487Z" fill="#F69400"/>
<path d="M51.0056 22.8762C39.533 31.1775 28.6438 36.5049 18.7997 38.6395L14.8135 39.497L15.9073 40.2633C18.4594 42.0877 30.0292 38.53 40.0678 32.856C47.4569 28.678 59.1968 20.4315 57.1551 20.8511C56.8877 20.9058 56.3773 20.6686 56.0127 20.322C55.4537 19.7747 54.9432 20.0118 51.0056 22.8762Z" fill="white"/>
<path d="M141.935 22.2018C141.498 22.7126 142.033 23.3147 142.956 23.3147C143.369 23.3147 143.612 23.0593 143.515 22.7126C143.345 21.9646 142.373 21.6727 141.935 22.2018Z" fill="white"/>
</svg>
