<svg width="23" height="18" viewBox="0 0 23 18" fill="none" xmlns="http://www.w3.org/2000/svg">
<g clip-path="url(#clip0_79_421)">
<path d="M8.69234 0.20134C7.37163 0.301254 5.9521 0.659567 4.77065 1.19014C3.79136 1.6277 2.65483 2.41668 1.93608 3.15397C1.27573 3.8327 0.813037 4.50798 0.4896 5.2625C-0.152783 6.76466 -0.152783 8.40463 0.4896 9.90678C0.813037 10.6613 1.27573 11.3366 1.93608 12.0153C2.65483 12.7526 3.79136 13.5416 4.77065 13.9791C6.67983 14.8336 8.86304 15.1609 11.0777 14.9232C12.65 14.7543 14.3435 14.2065 15.525 13.4899C15.6777 13.3969 15.8214 13.3211 15.8394 13.3211C15.8619 13.3211 17.1601 14.303 18.7324 15.5054C21.1941 17.39 21.6119 17.6966 21.8005 17.7483C22.5148 17.9516 23.1976 17.4279 22.9326 16.8801C22.8652 16.7354 22.4654 16.415 20.0082 14.5269C18.4404 13.3211 17.1601 12.3254 17.1601 12.3082C17.1601 12.2944 17.2589 12.1841 17.3802 12.067C17.816 11.6432 18.3191 10.9783 18.6156 10.427C19.7746 8.26337 19.5544 5.83787 18.0181 3.81892C17.6947 3.3917 17.0388 2.75087 16.5087 2.34777C15.9832 1.94122 15.1476 1.43821 14.5906 1.19014C12.8162 0.394278 10.7228 0.0428562 8.69234 0.20134ZM10.9834 1.61736C12.0615 1.7724 12.915 2.01702 13.791 2.42701C15.3003 3.13675 16.4908 4.25303 17.0837 5.51746C17.4296 6.24786 17.5375 6.75432 17.5375 7.58464C17.5375 8.41496 17.4296 8.92142 17.0837 9.65183C16.3066 11.309 14.5367 12.6665 12.3759 13.2625C11.4236 13.5278 10.7632 13.6105 9.68062 13.6105C8.85855 13.6105 8.44077 13.576 7.7939 13.4555C4.99976 12.9318 2.73569 11.2091 2.04839 9.0868C1.85522 8.49765 1.81929 8.26337 1.81929 7.58464C1.81929 6.90592 1.85522 6.67164 2.04839 6.08249C2.7312 3.9774 4.9728 2.25819 7.72202 1.73106C8.09487 1.65871 8.33745 1.62425 8.96187 1.55879C9.24038 1.52778 10.6375 1.56913 10.9834 1.61736Z" fill="black"/>
</g>
<defs>
<clipPath id="clip0_79_421">
<rect width="23" height="17.64" fill="white" transform="translate(0 0.159973)"/>
</clipPath>
</defs>
</svg>
